<?xml version="1.0" encoding="UTF-8" standalone="no"?>
<!DOCTYPE svg PUBLIC "-//W3C//DTD SVG 1.1//EN" "http://www.w3.org/Graphics/SVG/1.1/DTD/svg11.dtd">
<!-- Created with Vectornator (http://vectornator.io/) -->
<svg stroke-miterlimit="10" style="fill-rule:nonzero;clip-rule:evenodd;stroke-linecap:round;stroke-linejoin:round;" version="1.1" viewBox="0 0 1200 389" xml:space="preserve" xmlns="http://www.w3.org/2000/svg" xmlns:xlink="http://www.w3.org/1999/xlink">
<defs>
<clipPath id="TextBounds">
<rect height="155.951" width="1198.56" x="0.719543" y="116.524"/>
</clipPath>
<linearGradient gradientTransform="matrix(1 0 0 1 -83 -306.299)" gradientUnits="userSpaceOnUse" id="LinearGradient" x1="83.7195" x2="1282.28" y1="500.799" y2="500.799">
<stop offset="0.157025" stop-color="#d7644c"/>
<stop offset="0.200413" stop-color="#d5694f"/>
<stop offset="1" stop-color="#420b75"/>
</linearGradient>
<filter color-interpolation-filters="sRGB" filterUnits="userSpaceOnUse" height="110.951" id="Filter" width="1133.09" x="40.2136" y="137.172">
<feDropShadow dx="0.872093" dy="0" flood-color="#ed6d48" flood-opacity="1" in="SourceGraphic" result="Shadow" stdDeviation="4.16667"/>
</filter>
</defs>
<g id="Layer-1">
<g fill="url(#LinearGradient)" filter="url(#Filter)" stroke="none">
<path clip-path="url(#TextBounds)" d="M86.5225 239.275C110.738 239.275 124.262 227.296 128.513 205.142L139.976 145.505L113.571 145.505L102.108 204.498C100.433 213.256 95.6675 217.893 87.5529 217.893C77.1198 217.893 72.7404 212.097 74.5437 202.694L85.6208 145.505L59.0872 145.505L48.654 199.474C43.1155 228.069 61.7921 239.275 86.5225 239.275Z"/>
<path clip-path="url(#TextBounds)" d="M167.025 171.91L144.098 171.91L131.346 237.6L155.304 237.6L162.259 201.406C163.676 194.451 168.313 189.041 174.238 189.041C180.549 189.041 181.966 193.549 180.807 199.345L173.336 237.6L197.294 237.6L204.893 198.186C208.5 179.767 200.643 169.849 187.118 169.849C177.716 169.849 170.245 175.13 165.351 182.214L164.964 182.214L167.025 171.91Z"/>
<path clip-path="url(#TextBounds)" d="M233.617 239.79C241.603 239.79 248.816 235.153 252.68 229.743L252.937 229.743L251.521 237.6L274.319 237.6L292.094 145.505L268.136 145.505L261.438 179.896L261.052 179.896C257.059 173.585 251.392 169.849 242.504 169.849C220.35 169.849 208.886 190.844 208.758 211.067C208.629 228.584 218.675 239.79 233.617 239.79ZM233.746 209.006C233.746 199.603 237.996 187.238 247.914 187.109C255.256 187.109 257.703 194.064 257.703 200.376C257.703 209.65 252.809 221.628 243.277 221.628C236.064 221.628 233.746 215.188 233.746 209.006Z"/>
<path clip-path="url(#TextBounds)" d="M354.306 210.68C356.753 193.936 353.018 181.184 342.327 174.357C337.562 171.395 331.765 169.72 323.651 169.72C301.625 169.72 286.169 186.851 286.169 209.134C286.169 228.842 300.852 239.403 320.173 239.403C327.644 239.403 334.213 237.729 340.524 233.865C346.192 230.387 350.571 225.106 352.761 218.022L329.576 218.022C327.901 221.628 324.166 223.045 320.173 223.045C311.414 223.045 309.096 216.863 308.967 210.68L354.306 210.68ZM323.522 185.95C330.477 185.95 333.182 191.36 332.925 197.8L310.642 197.8C313.089 189.041 318.627 185.95 323.522 185.95Z"/>
<path clip-path="url(#TextBounds)" d="M389.727 171.91L366.8 171.91L354.049 237.6L378.006 237.6L382.901 212.097C386.121 195.481 393.978 189.556 408.533 191.875L409.048 191.875L413.041 171.137C412.268 170.751 410.465 170.493 408.533 170.493C400.418 170.493 393.591 174.1 387.924 182.858L387.538 182.858L389.727 171.91Z"/>
<path clip-path="url(#TextBounds)" d="M434.294 239.79C442.279 239.79 449.492 235.153 453.357 229.743L453.614 229.743L452.197 237.6L474.996 237.6L492.771 145.505L468.813 145.505L462.115 179.896L461.729 179.896C457.736 173.585 452.068 169.849 443.181 169.849C421.027 169.849 409.563 190.844 409.434 211.067C409.306 228.584 419.352 239.79 434.294 239.79ZM434.422 209.006C434.422 199.603 438.673 187.238 448.591 187.109C455.933 187.109 458.38 194.064 458.38 200.376C458.38 209.65 453.485 221.628 443.954 221.628C436.741 221.628 434.422 215.188 434.422 209.006Z"/>
<path clip-path="url(#TextBounds)" d="M519.433 239.661C543.004 239.661 558.203 222.53 558.074 199.861C557.945 179.123 541.845 169.978 525.1 169.978C501.787 169.978 486.846 187.753 486.846 210.036C486.846 230.645 503.204 239.661 519.433 239.661ZM510.932 210.938C510.803 202.565 514.152 186.336 524.585 186.336C531.541 186.336 533.73 192.648 533.73 199.088C533.859 208.104 530.381 223.432 519.819 223.432C512.993 223.432 510.932 217.636 510.932 210.938Z"/>
<path clip-path="url(#TextBounds)" d="M594.011 239.661C611.013 239.532 625.181 229.486 628.273 211.067L605.732 211.067C603.8 218.924 599.163 222.659 593.753 222.659C586.798 222.659 584.608 217.12 584.608 210.809C584.608 201.277 588.73 186.851 598.905 186.851C604.959 186.851 606.633 190.973 607.02 196.254L629.689 196.254C629.303 178.093 616.551 169.978 599.42 169.978C575.978 169.978 560.522 187.753 560.522 210.551C560.522 231.675 576.364 239.661 594.011 239.661Z"/>
<path clip-path="url(#TextBounds)" d="M670.391 237.6L693.19 237.6L705.941 171.91L681.984 171.91L674.9 208.619C673.483 216.219 668.846 220.212 662.921 220.212C656.609 220.212 655.579 214.673 656.738 208.877L663.951 171.91L639.994 171.91L632.137 212.483C628.659 230.13 637.16 239.661 650.942 239.661C660.602 239.661 667.3 234.509 671.937 227.167L672.324 227.167L670.391 237.6Z"/>
<path clip-path="url(#TextBounds)" d="M701.691 237.6L725.648 237.6L732.475 202.179C734.021 194.451 737.885 189.041 743.81 189.041C749.992 189.041 750.636 193.807 749.477 199.603L742.135 237.6L766.093 237.6L772.92 202.179C774.465 193.936 778.329 189.041 784.254 189.041C790.308 189.041 791.081 193.549 789.922 199.603L782.58 237.6L806.537 237.6L814.137 198.573C817.357 182.086 811.818 169.849 795.975 169.849C787.603 169.849 780.133 173.327 774.079 181.699L773.692 181.699C771.116 174.357 765.706 169.849 757.077 169.849C747.287 169.849 741.363 174.744 735.824 182.086L735.438 182.086L737.37 171.91L714.442 171.91L701.691 237.6Z"/>
<path clip-path="url(#TextBounds)" d="M886.138 210.68C888.586 193.936 884.85 181.184 874.16 174.357C869.394 171.395 863.598 169.72 855.483 169.72C833.457 169.72 818.001 186.851 818.001 209.134C818.001 228.842 832.685 239.403 852.005 239.403C859.476 239.403 866.045 237.729 872.356 233.865C878.024 230.387 882.403 225.106 884.593 218.022L861.408 218.022C859.733 221.628 855.998 223.045 852.005 223.045C843.247 223.045 840.928 216.863 840.799 210.68L886.138 210.68ZM855.354 185.95C862.31 185.95 865.014 191.36 864.757 197.8L842.474 197.8C844.921 189.041 850.46 185.95 855.354 185.95Z"/>
<path clip-path="url(#TextBounds)" d="M921.559 171.91L898.632 171.91L885.881 237.6L909.838 237.6L916.794 201.406C918.211 194.451 922.847 189.041 928.772 189.041C935.084 189.041 936.501 193.549 935.341 199.345L927.871 237.6L951.828 237.6L959.428 198.186C963.034 179.767 955.177 169.849 941.653 169.849C932.25 169.849 924.78 175.13 919.885 182.214L919.499 182.214L921.559 171.91Z"/>
<path clip-path="url(#TextBounds)" d="M965.095 186.465L973.467 186.465L967.671 216.863C964.838 231.418 971.02 238.888 987.121 238.888C992.402 238.888 996.266 237.987 999.1 237.214L1002.45 220.212C1001.03 220.34 999.1 220.469 997.811 220.469C992.402 220.469 990.856 218.795 991.758 213.643L996.91 186.465L1009.15 186.465L1012.11 171.91L999.872 171.91L1003.99 150.657L980.552 150.657L976.43 171.91L968.058 171.91L965.095 186.465Z"/>
<path clip-path="url(#TextBounds)" d="M1077.03 210.68C1079.47 193.936 1075.74 181.184 1065.05 174.357C1060.28 171.395 1054.49 169.72 1046.37 169.72C1024.35 169.72 1008.89 186.851 1008.89 209.134C1008.89 228.842 1023.57 239.403 1042.89 239.403C1050.36 239.403 1056.93 237.729 1063.24 233.865C1068.91 230.387 1073.29 225.106 1075.48 218.022L1052.3 218.022C1050.62 221.628 1046.89 223.045 1042.89 223.045C1034.13 223.045 1031.82 216.863 1031.69 210.68L1077.03 210.68ZM1046.24 185.95C1053.2 185.95 1055.9 191.36 1055.64 197.8L1033.36 197.8C1035.81 189.041 1041.35 185.95 1046.24 185.95Z"/>
<path clip-path="url(#TextBounds)" d="M1105.62 239.79C1113.61 239.79 1120.82 235.153 1124.68 229.743L1124.94 229.743L1123.52 237.6L1146.32 237.6L1164.1 145.505L1140.14 145.505L1133.44 179.896L1133.06 179.896C1129.06 173.585 1123.4 169.849 1114.51 169.849C1092.35 169.849 1080.89 190.844 1080.76 211.067C1080.63 228.584 1090.68 239.79 1105.62 239.79ZM1105.75 209.006C1105.75 199.603 1110 187.238 1119.92 187.109C1127.26 187.109 1129.71 194.064 1129.71 200.376C1129.71 209.65 1124.81 221.628 1115.28 221.628C1108.07 221.628 1105.75 215.188 1105.75 209.006Z"/>
</g>
</g>
<g id="Layer-2"/>
</svg>
